<?xml version="1.0" encoding="UTF-8" standalone="no"?>
<svg
   width="800px"
   height="800px"
   viewBox="0 0 24 24"
   version="1.1"
   id="svg9"
   sodipodi:docname="favicon.svg"
   inkscape:version="1.2.2 (1:1.2.2+202212051552+b0a8486541)"
   xmlns:inkscape="http://www.inkscape.org/namespaces/inkscape"
   xmlns:sodipodi="http://sodipodi.sourceforge.net/DTD/sodipodi-0.dtd"
   xmlns="http://www.w3.org/2000/svg"
   xmlns:svg="http://www.w3.org/2000/svg"
   xmlns:rdf="http://www.w3.org/1999/02/22-rdf-syntax-ns#"
   xmlns:cc="http://creativecommons.org/ns#"
   xmlns:dc="http://purl.org/dc/elements/1.1/">
  <defs
     id="defs13" />
  <sodipodi:namedview
     id="namedview11"
     pagecolor="#ffffff"
     bordercolor="#000000"
     borderopacity="0.25"
     inkscape:showpageshadow="2"
     inkscape:pageopacity="0.0"
     inkscape:pagecheckerboard="0"
     inkscape:deskcolor="#d1d1d1"
     showgrid="false"
     inkscape:zoom="0.423125"
     inkscape:cx="81.536189"
     inkscape:cy="428.95126"
     inkscape:window-width="1600"
     inkscape:window-height="841"
     inkscape:window-x="0"
     inkscape:window-y="23"
     inkscape:window-maximized="1"
     inkscape:current-layer="svg9" />
  <!-- Uploaded to: SVG Repo, www.svgrepo.com, Generator: SVG Repo Mixer Tools -->
  <title
     id="title2">ic_fluent_games_24_filled</title>
  <desc
     id="desc4">Created with Sketch.</desc>
  <ellipse
     style="fill:#c4c1e7;fill-opacity:1;stroke-width:0.0113386;stroke-linecap:round;stroke-linejoin:round;stroke-dashoffset:1924.07;paint-order:stroke fill markers"
     id="path294"
     cx="12.078617"
     cy="12"
     rx="10.593021"
     ry="10.210605" />
  <g
     id="ðŸ”-Product-Icons"
     stroke="none"
     stroke-width="1.00572"
     fill="none"
     fill-rule="evenodd"
     transform="matrix(0.99430664,0,0,0.99430664,0.06832046,0.06832044)">
    <g
       id="ic_fluent_games_24_filled"
       fill="#212121"
       fill-rule="nonzero"
       style="stroke-width:1.12232">
      <path
         d="m 14.997883,5 c 3.865994,0 7,3.1340067 7,7 0,3.785452 -3.004783,6.869099 -6.75935,6.995941 L 14.997883,19 H 9.0021166 c -3.8659933,0 -7,-3.134007 -7,-7 0,-3.7854517 3.0047833,-6.8690987 6.7593502,-6.995941 L 9.0021166,5 Z M 14.75,12.5 c -0.690356,0 -1.25,0.559644 -1.25,1.25 0,0.690356 0.559644,1.25 1.25,1.25 C 15.440356,15 16,14.440356 16,13.75 16,13.059644 15.440356,12.5 14.75,12.5 Z M 8,9 C 7.6203042,9 7.306509,9.2821539 7.2568466,9.6482294 L 7.25,9.75 v 1.498 l -1.5,7.46e-4 c -0.4142136,0 -0.75,0.335786 -0.75,0.75 0,0.379695 0.2821539,0.693491 0.6482294,0.743153 L 5.75,12.748746 7.25,12.748 V 14.25 C 7.25,14.664214 7.5857864,15 8,15 8.3796958,15 8.693491,14.717846 8.7431534,14.351771 L 8.75,14.25 v -1.502 l 1.5,7.46e-4 c 0.414214,0 0.75,-0.335787 0.75,-0.75 0,-0.379696 -0.282154,-0.693491 -0.648229,-0.743154 L 10.25,11.248746 8.75,11.248 V 9.75 C 8.75,9.3357864 8.4142136,9 8,9 Z m 8.75,0 c -0.690356,0 -1.25,0.5596441 -1.25,1.25 0,0.690356 0.559644,1.25 1.25,1.25 C 17.440356,11.5 18,10.940356 18,10.25 18,9.5596441 17.440356,9 16.75,9 Z"
         id="ðŸŽ¨-Color"
         style="stroke-width:1.00572" />
    </g>
  </g>
  <metadata
     id="metadata1910">
    <rdf:RDF>
      <cc:Work
         rdf:about="">
        <dc:title>ic_fluent_games_24_filled</dc:title>
      </cc:Work>
    </rdf:RDF>
  </metadata>
</svg>
