<?xml version="1.0" encoding="UTF-8" standalone="no"?>
<svg
   width="768.52747"
   height="96.443214"
   viewBox="0 0 23.055823 2.8932966"
   version="1.1"
   id="svg9"
   sodipodi:docname="mgc-logo_03.svg"
   inkscape:version="1.2.2 (1:1.2.2+202212051552+b0a8486541)"
   inkscape:export-filename="mgc-logo_03.svg"
   inkscape:export-xdpi="70.603035"
   inkscape:export-ydpi="70.603035"
   xmlns:inkscape="http://www.inkscape.org/namespaces/inkscape"
   xmlns:sodipodi="http://sodipodi.sourceforge.net/DTD/sodipodi-0.dtd"
   xmlns="http://www.w3.org/2000/svg"
   xmlns:svg="http://www.w3.org/2000/svg"
   xmlns:rdf="http://www.w3.org/1999/02/22-rdf-syntax-ns#"
   xmlns:cc="http://creativecommons.org/ns#"
   xmlns:dc="http://purl.org/dc/elements/1.1/">
  <defs
     id="defs13">
    <rect
       x="840.7381"
       y="179.36647"
       width="1937.4896"
       height="528.24438"
       id="rect347" />
  </defs>
  <sodipodi:namedview
     id="namedview11"
     pagecolor="#ffffff"
     bordercolor="#000000"
     borderopacity="0.25"
     inkscape:showpageshadow="2"
     inkscape:pageopacity="0.0"
     inkscape:pagecheckerboard="0"
     inkscape:deskcolor="#d1d1d1"
     showgrid="false"
     inkscape:zoom="0.84625"
     inkscape:cx="181.97932"
     inkscape:cy="169.57164"
     inkscape:window-width="1600"
     inkscape:window-height="841"
     inkscape:window-x="0"
     inkscape:window-y="23"
     inkscape:window-maximized="1"
     inkscape:current-layer="svg9"
     showguides="true">
    <sodipodi:guide
       position="1.9663346,2.4336923"
       orientation="0,-1"
       id="guide2623"
       inkscape:locked="false" />
    <sodipodi:guide
       position="2.2170076,0.45337538"
       orientation="0,-1"
       id="guide2625"
       inkscape:locked="false" />
  </sodipodi:namedview>
  <!-- Uploaded to: SVG Repo, www.svgrepo.com, Generator: SVG Repo Mixer Tools -->
  <title
     id="title2">ic_fluent_games_24_filled</title>
  <desc
     id="desc4">Created with Sketch.</desc>
  <metadata
     id="metadata1910">
    <rdf:RDF>
      <cc:Work
         rdf:about="">
        <dc:title>ic_fluent_games_24_filled</dc:title>
      </cc:Work>
    </rdf:RDF>
  </metadata>
  <g
     id="g538">
    <ellipse
       style="fill:#b6b3e1;fill-opacity:1;stroke-width:0.0113386;stroke-linecap:round;stroke-linejoin:round;stroke-dashoffset:1924.07;paint-order:stroke fill markers"
       id="path294"
       cx="1.7274238"
       cy="1.4466482"
       rx="1.404686"
       ry="1.3539758"
       inkscape:export-filename="logo.svg"
       inkscape:export-xdpi="70.603035"
       inkscape:export-ydpi="70.603035" />
    <g
       id="ðŸ”-Product-Icons"
       stroke="none"
       stroke-width="7.58433"
       fill="none"
       fill-rule="evenodd"
       transform="matrix(0.13184989,0,0,0.13184989,0.1348006,-0.13555092)">
      <g
         id="ic_fluent_games_24_filled"
         fill="#212121"
         fill-rule="nonzero"
         style="stroke-width:8.46363">
        <path
           d="m 14.997883,5 c 3.865994,0 7,3.1340067 7,7 0,3.785452 -3.004783,6.869099 -6.75935,6.995941 L 14.997883,19 H 9.0021166 c -3.8659933,0 -7,-3.134007 -7,-7 0,-3.7854517 3.0047833,-6.8690987 6.7593502,-6.995941 L 9.0021166,5 Z M 14.75,12.5 c -0.690356,0 -1.25,0.559644 -1.25,1.25 0,0.690356 0.559644,1.25 1.25,1.25 C 15.440356,15 16,14.440356 16,13.75 16,13.059644 15.440356,12.5 14.75,12.5 Z M 8,9 C 7.6203042,9 7.306509,9.2821539 7.2568466,9.6482294 L 7.25,9.75 v 1.498 l -1.5,7.46e-4 c -0.4142136,0 -0.75,0.335786 -0.75,0.75 0,0.379695 0.2821539,0.693491 0.6482294,0.743153 L 5.75,12.748746 7.25,12.748 V 14.25 C 7.25,14.664214 7.5857864,15 8,15 8.3796958,15 8.693491,14.717846 8.7431534,14.351771 L 8.75,14.25 v -1.502 l 1.5,7.46e-4 c 0.414214,0 0.75,-0.335787 0.75,-0.75 0,-0.379696 -0.282154,-0.693491 -0.648229,-0.743154 L 10.25,11.248746 8.75,11.248 V 9.75 C 8.75,9.3357864 8.4142136,9 8,9 Z m 8.75,0 c -0.690356,0 -1.25,0.5596441 -1.25,1.25 0,0.690356 0.559644,1.25 1.25,1.25 C 17.440356,11.5 18,10.940356 18,10.25 18,9.5596441 17.440356,9 16.75,9 Z"
           id="ðŸŽ¨-Color"
           style="stroke-width:7.58433" />
      </g>
    </g>
    <g
       aria-label="My Games Catalog"
       transform="matrix(0.01257778,0,0,0.01257778,-9.4909636,-1.850641)"
       id="text345"
       style="font-size:146.667px;line-height:178.972px;font-family:Amaranth;-inkscape-font-specification:Amaranth;text-align:center;white-space:pre;shape-inside:url(#rect347);display:inline;fill:#212121;stroke-width:0.901477;stroke-linecap:round;stroke-linejoin:round;stroke-dashoffset:1924.07;paint-order:stroke fill markers">
      <path
         d="m 1192.9878,313.62777 h -18.763 v -61.15899 l -33.0144,58.07956 q -1.2175,2.22006 -3.4375,3.36589 -2.1485,1.14584 -4.655,1.14584 -2.4349,0 -4.5833,-1.14584 -2.0769,-1.14583 -3.2943,-3.36589 l -33.1577,-58.07956 v 61.15899 h -18.6198 v -94.74631 q 0,-3.22266 1.862,-5.72918 1.9336,-2.50652 5.013,-3.36589 1.5039,-0.35808 3.0078,-0.21485 1.504,0.0716 2.8646,0.64453 1.4323,0.50131 2.5782,1.50391 1.1458,0.931 1.9336,2.29168 l 42.3959,73.69157 42.3959,-73.69157 q 1.6472,-2.72136 4.5118,-3.8672 2.9362,-1.14584 6.0872,-0.35807 3.0078,0.85937 4.9414,3.36589 1.9336,2.50652 1.9336,5.72918 z"
         style="font-family:Audiowide;-inkscape-font-specification:Audiowide"
         id="path389" />
      <path
         d="m 1297.5454,321.07571 q 0,4.79819 -1.2175,8.59377 -1.2174,3.86719 -3.2227,6.73178 -2.0052,2.93621 -4.6549,4.94142 -2.6498,2.07683 -5.586,3.36589 -2.8646,1.28907 -5.8008,1.86199 -2.9362,0.64453 -5.5859,0.64453 h -33.5873 v -18.61983 h 33.5873 q 3.724,0 5.5859,-1.9336 1.862,-1.9336 1.862,-5.58595 v -84.86348 h 18.6199 z m -26.0678,-7.44794 h -33.5873 q -4.0104,0 -8.5938,-1.36068 -4.5117,-1.36068 -8.4505,-4.44011 -3.9388,-3.15105 -6.517,-8.09247 -2.5781,-5.01303 -2.5781,-12.24612 v -51.27616 h 18.6198 v 51.27616 q 0,3.65235 1.9336,5.58595 1.9336,1.9336 5.7292,1.9336 h 33.4441 z"
         style="font-family:Audiowide;-inkscape-font-specification:Audiowide"
         id="path391" />
      <path
         d="m 1466.4129,304.24624 q 0,2.00521 -0.7161,3.72397 -0.7162,1.71875 -2.0052,3.00782 -1.2175,1.21745 -2.9362,1.9336 -1.7188,0.71614 -3.724,0.71614 h -67.1746 q -2.5782,0 -5.586,-0.57291 -2.9362,-0.64454 -5.8724,-1.9336 -2.8646,-1.28907 -5.5143,-3.29428 -2.6498,-2.07683 -4.7266,-4.94142 -2.0052,-2.9362 -3.2227,-6.73179 -1.2174,-3.86719 -1.2174,-8.66538 v -50.41678 q 0,-2.57814 0.5729,-5.51434 0.6445,-3.00782 1.9336,-5.87241 1.2891,-2.9362 3.3659,-5.58595 2.0768,-2.64975 4.9414,-4.65496 2.9362,-2.07683 6.7318,-3.29428 3.7956,-1.21745 8.5938,-1.21745 h 75.6968 v 18.61984 h -75.6968 q -3.6524,0 -5.586,1.9336 -1.9336,1.93359 -1.9336,5.72918 v 50.27355 q 0,3.58074 1.9336,5.58595 2.0052,1.9336 5.586,1.9336 h 57.9363 v -23.34641 h -49.5574 v -18.76306 h 58.7957 q 2.0052,0 3.724,0.78776 1.7187,0.71615 2.9362,2.00521 1.289,1.28907 2.0052,3.00782 0.7161,1.64714 0.7161,3.58074 z"
         style="font-family:Audiowide;-inkscape-font-specification:Audiowide"
         id="path393" />
      <path
         d="m 1563.6658,287.98969 q 0,3.8672 -1.3607,8.37893 -1.3607,4.44011 -4.4401,8.30731 -3.0078,3.79558 -7.9493,6.37371 -4.8698,2.57813 -11.888,2.57813 h -33.5873 q -3.8672,0 -8.379,-1.36068 -4.4401,-1.36068 -8.3073,-4.3685 -3.7955,-3.07943 -6.3737,-7.94923 -2.5781,-4.94142 -2.5781,-11.95967 0,-3.86719 1.3607,-8.37892 1.3607,-4.51173 4.3685,-8.30731 3.0794,-3.8672 7.9492,-6.44533 4.9414,-2.57813 11.9597,-2.57813 h 33.5873 v 17.76046 h -33.5873 q -3.7956,0 -5.8724,2.36328 -2.0769,2.29167 -2.0769,5.72918 0,3.65235 2.3633,5.72918 2.4349,2.00522 5.7292,2.00522 h 33.4441 q 3.7956,0 5.8724,-2.29168 2.0768,-2.29167 2.0768,-5.72918 v -25.99615 q 0,-3.65235 -2.2916,-5.8008 -2.2201,-2.14844 -5.6576,-2.14844 h -40.892 v -17.68884 h 40.892 q 3.8672,0 8.3073,1.36068 4.5117,1.36068 8.3073,4.44011 3.8672,3.00782 6.4453,7.94924 2.5782,4.8698 2.5782,11.88805 z"
         style="font-family:Audiowide;-inkscape-font-specification:Audiowide"
         id="path395" />
      <path
         d="m 1648.6725,313.62777 h -18.6199 V 262.28 q 0,-3.65235 -1.9336,-5.51434 -1.9336,-1.9336 -5.7291,-1.9336 h -24.2058 v 58.79571 h -18.6199 v -68.17724 q 0,-1.9336 0.7162,-3.58074 0.7161,-1.71875 2.0052,-2.9362 1.2891,-1.28907 3.0078,-2.00521 1.7188,-0.71615 3.6524,-0.71615 h 33.5873 q 3.8672,0 8.3073,1.36068 4.4401,1.36068 8.4505,4.3685 v -5.72918 h 25.2084 q 2.6498,0 5.586,0.64453 2.9362,0.57292 5.8008,1.86198 2.9362,1.28907 5.5859,3.3659 2.6498,2.00521 4.655,4.94142 2.0052,2.86459 3.2226,6.66017 1.2175,3.79558 1.2175,8.59377 v 51.34777 h -18.6198 V 262.28 q 0,-3.65235 -1.862,-5.51434 -1.7904,-1.9336 -5.586,-1.9336 h -16.7578 q 0.931,3.43751 0.931,7.44794 z"
         style="font-family:Audiowide;-inkscape-font-specification:Audiowide"
         id="path397" />
      <path
         d="m 1790.971,261.85031 q 0,3.8672 -1.3607,8.37892 -1.3607,4.44012 -4.4401,8.30732 -3.0078,3.79558 -7.9492,6.37371 -4.8698,2.57813 -11.8881,2.57813 h -33.5873 v -17.68884 h 33.5873 q 3.7956,0 5.8724,-2.29168 2.0768,-2.36328 2.0768,-5.80079 0,-3.65235 -2.3632,-5.72918 -2.2917,-2.07683 -5.586,-2.07683 h -33.5873 q -3.7956,0 -5.8724,2.36329 -2.0768,2.29167 -2.0768,5.72918 v 25.99615 q 0,3.72397 2.2916,5.8008 2.3633,2.07683 5.8008,2.07683 h 33.4441 v 17.76045 h -33.5873 q -3.8672,0 -8.3789,-1.36068 -4.4401,-1.36068 -8.3073,-4.3685 -3.7956,-3.07943 -6.3738,-7.94923 -2.5781,-4.94142 -2.5781,-11.95967 v -26.13938 q 0,-3.8672 1.3607,-8.30731 1.3607,-4.51173 4.3685,-8.30731 3.0794,-3.8672 7.9492,-6.44533 4.9414,-2.57813 11.9597,-2.57813 h 33.5873 q 3.8672,0 8.3073,1.36068 4.5118,1.36068 8.3073,4.44011 3.8672,3.00782 6.4454,7.94924 2.5781,4.8698 2.5781,11.88805 z"
         style="font-family:Audiowide;-inkscape-font-specification:Audiowide"
         id="path399" />
      <path
         d="m 1878.341,287.48839 q 0,4.79819 -1.2174,8.66538 -1.2175,3.79559 -3.2227,6.73179 -2.0052,2.86459 -4.655,4.94142 -2.6497,2.00521 -5.5859,3.29428 -2.8646,1.28906 -5.8724,1.9336 -2.9362,0.57291 -5.586,0.57291 h -50.4168 v -18.61983 h 50.2736 q 3.7956,0 5.7292,-1.9336 1.9336,-1.9336 1.9336,-5.58595 -0.3581,-7.44793 -7.5196,-7.44793 h -28.8607 q -6.1589,0 -10.4558,-2.14845 -4.2969,-2.14844 -7.0182,-5.3711 -2.6498,-3.22267 -3.8672,-6.94663 -1.1459,-3.72397 -1.1459,-6.94663 0,-6.23049 2.2201,-10.45576 2.2201,-4.29688 5.586,-6.94663 3.3659,-2.64974 7.3047,-3.79558 3.9388,-1.21745 7.3763,-1.21745 h 45.7618 v 18.61983 h -45.6186 q -1.4323,0 -2.2917,0.35808 -0.7877,0.28646 -1.2174,0.85937 -0.3581,0.50131 -0.4297,1.14584 -0.072,0.57292 -0.072,1.14584 0.072,1.14583 0.4297,1.79037 0.358,0.64453 0.8593,0.93099 0.573,0.28646 1.2175,0.35807 0.7161,0 1.3607,0 h 28.8607 q 7.1615,0 12.1745,2.57813 5.0131,2.57813 8.0925,6.51694 3.0794,3.8672 4.4401,8.45054 1.4323,4.58335 1.4323,8.52216 z"
         style="font-family:Audiowide;-inkscape-font-specification:Audiowide"
         id="path401" />
      <path
         d="m 2033.1005,313.62777 h -67.1747 q -2.5781,0 -5.5859,-0.57291 -2.9362,-0.64454 -5.8724,-1.9336 -2.8646,-1.28907 -5.5144,-3.29428 -2.6497,-2.07683 -4.7265,-4.94142 -2.0052,-2.9362 -3.2227,-6.73179 -1.2174,-3.86719 -1.2174,-8.66538 v -50.41678 q 0,-2.57814 0.5729,-5.51434 0.6445,-3.00782 1.9336,-5.87241 1.289,-2.9362 3.3659,-5.58595 2.0768,-2.64975 4.9414,-4.65496 2.9362,-2.07683 6.7318,-3.29428 3.7955,-1.21745 8.5937,-1.21745 h 67.1747 v 18.61984 h -67.1747 q -3.6523,0 -5.5859,1.9336 -1.9336,1.93359 -1.9336,5.72918 v 50.27355 q 0,3.58074 1.9336,5.58595 2.0052,1.9336 5.5859,1.9336 h 67.1747 z"
         style="font-family:Audiowide;-inkscape-font-specification:Audiowide"
         id="path403" />
      <path
         d="m 2128.1332,287.98969 q 0,3.8672 -1.3606,8.37893 -1.3607,4.44011 -4.4402,8.30731 -3.0078,3.79558 -7.9492,6.37371 -4.8698,2.57813 -11.888,2.57813 h -33.5874 q -3.8672,0 -8.3789,-1.36068 -4.4401,-1.36068 -8.3073,-4.3685 -3.7956,-3.07943 -6.3737,-7.94923 -2.5781,-4.94142 -2.5781,-11.95967 0,-3.86719 1.3606,-8.37892 1.3607,-4.51173 4.3685,-8.30731 3.0795,-3.8672 7.9493,-6.44533 4.9414,-2.57813 11.9596,-2.57813 h 33.5874 v 17.76046 h -33.5874 q -3.7955,0 -5.8724,2.36328 -2.0768,2.29167 -2.0768,5.72918 0,3.65235 2.3633,5.72918 2.4349,2.00522 5.7292,2.00522 h 33.4441 q 3.7955,0 5.8724,-2.29168 2.0768,-2.29167 2.0768,-5.72918 v -25.99615 q 0,-3.65235 -2.2917,-5.8008 -2.22,-2.14844 -5.6575,-2.14844 h -40.8921 v -17.68884 h 40.8921 q 3.8672,0 8.3073,1.36068 4.5117,1.36068 8.3073,4.44011 3.8672,3.00782 6.4453,7.94924 2.5781,4.8698 2.5781,11.88805 z"
         style="font-family:Audiowide;-inkscape-font-specification:Audiowide"
         id="path405" />
      <path
         d="m 2214.1425,254.83206 h -32.5131 v 58.79571 h -18.8346 v -58.79571 h -24.2058 v -18.61983 h 24.2058 v -25.28001 h 18.8346 v 25.28001 h 32.5131 z"
         style="font-family:Audiowide;-inkscape-font-specification:Audiowide"
         id="path407" />
      <path
         d="m 2301.8707,287.98969 q 0,3.8672 -1.3607,8.37893 -1.3607,4.44011 -4.4401,8.30731 -3.0079,3.79558 -7.9493,6.37371 -4.8698,2.57813 -11.888,2.57813 h -33.5873 q -3.8672,0 -8.379,-1.36068 -4.4401,-1.36068 -8.3073,-4.3685 -3.7956,-3.07943 -6.3737,-7.94923 -2.5781,-4.94142 -2.5781,-11.95967 0,-3.86719 1.3607,-8.37892 1.3606,-4.51173 4.3685,-8.30731 3.0794,-3.8672 7.9492,-6.44533 4.9414,-2.57813 11.9597,-2.57813 h 33.5873 v 17.76046 h -33.5873 q -3.7956,0 -5.8724,2.36328 -2.0769,2.29167 -2.0769,5.72918 0,3.65235 2.3633,5.72918 2.4349,2.00522 5.7292,2.00522 h 33.4441 q 3.7956,0 5.8724,-2.29168 2.0768,-2.29167 2.0768,-5.72918 v -25.99615 q 0,-3.65235 -2.2917,-5.8008 -2.22,-2.14844 -5.6575,-2.14844 h -40.892 v -17.68884 h 40.892 q 3.8672,0 8.3073,1.36068 4.5117,1.36068 8.3073,4.44011 3.8672,3.00782 6.4453,7.94924 2.5782,4.8698 2.5782,11.88805 z"
         style="font-family:Audiowide;-inkscape-font-specification:Audiowide"
         id="path409" />
      <path
         d="m 2351.786,313.62777 h -8.3073 q -4.0104,0 -8.5937,-1.36068 -4.5118,-1.36068 -8.4506,-4.44011 -3.9388,-3.15105 -6.5169,-8.09247 -2.5782,-5.01303 -2.5782,-12.24612 v -84.0041 h 18.6199 v 84.0041 q 0,3.43751 2.1484,5.51434 2.1485,2.00521 5.3711,2.00521 h 8.3073 z"
         style="font-family:Audiowide;-inkscape-font-specification:Audiowide"
         id="path411" />
      <path
         d="m 2447.9647,287.48839 q 0,4.79819 -1.2175,8.66538 -1.2174,3.79559 -3.2226,6.73179 -2.0053,2.86459 -4.655,4.94142 -2.6498,2.00521 -5.586,3.29428 -2.8645,1.28906 -5.8724,1.9336 -2.9362,0.57291 -5.5859,0.57291 h -33.5873 q -3.8672,0 -8.4506,-1.36068 -4.5833,-1.36068 -8.5221,-4.44011 -3.8672,-3.15105 -6.517,-8.09247 -2.5781,-5.01303 -2.5781,-12.24612 V 262.28 q 0,-7.16148 2.5781,-12.1029 2.6498,-5.01303 6.517,-8.09246 3.9388,-3.15105 8.5221,-4.51173 4.5834,-1.36068 8.4506,-1.36068 h 33.5873 q 7.1615,0 12.1745,2.57813 5.013,2.57813 8.0925,6.51694 3.0794,3.8672 4.4401,8.45054 1.4323,4.58335 1.4323,8.52216 z m -18.6199,-25.06516 q 0,-3.8672 -1.9336,-5.72918 -1.9336,-1.86199 -5.5859,-1.86199 h -33.4441 q -3.724,0 -5.6576,1.9336 -1.9336,1.86199 -1.9336,5.51434 v 25.20839 q 0,3.65235 1.9336,5.58595 1.9336,1.9336 5.6576,1.9336 h 33.4441 q 3.7956,0 5.6575,-1.9336 1.862,-1.9336 1.862,-5.58595 z"
         style="font-family:Audiowide;-inkscape-font-specification:Audiowide"
         id="path413" />
      <path
         d="m 2548.0104,321.07571 q 0,4.79819 -1.2174,8.59377 -1.2175,3.86719 -3.2227,6.73178 -2.0052,2.93621 -4.6549,4.94142 -2.6498,2.07683 -5.586,3.36589 -2.8646,1.28907 -5.8724,1.86199 -2.9362,0.64453 -5.5859,0.64453 h -33.5874 v -18.61983 h 33.5874 q 3.7955,0 5.6575,-1.9336 1.862,-1.9336 1.862,-5.58595 V 262.28 q 0,-3.65235 -1.862,-5.51434 -1.862,-1.9336 -5.6575,-1.9336 h -33.5874 q -3.4375,0 -5.4427,2.14845 -2.0052,2.07682 -2.0052,5.29949 v 25.20839 q 0,3.65235 1.9336,5.58595 1.9336,1.9336 5.6576,1.9336 h 33.4441 v 18.61983 h -33.5874 q -2.6497,0 -5.5859,-0.57291 -2.9362,-0.64454 -5.8724,-1.9336 -2.8646,-1.28907 -5.5144,-3.29428 -2.6497,-2.07683 -4.6549,-4.94142 -2.0052,-2.9362 -3.2227,-6.73179 -1.2174,-3.86719 -1.2174,-8.66538 V 262.28 q 0,-2.64975 0.5729,-5.58595 0.6445,-2.93621 1.9336,-5.8008 1.2891,-2.9362 3.2943,-5.58595 2.0768,-2.64974 4.9414,-4.65496 2.9362,-2.00521 6.7318,-3.22266 3.7956,-1.21745 8.5937,-1.21745 h 33.5874 q 2.6497,0 5.5859,0.64453 3.0078,0.57292 5.8724,1.86198 2.9362,1.28907 5.586,3.3659 2.6497,2.00521 4.6549,4.94142 2.0052,2.86459 3.2227,6.66017 1.2174,3.79558 1.2174,8.59377 z"
         style="font-family:Audiowide;-inkscape-font-specification:Audiowide"
         id="path415" />
    </g>
    <path
       style="color:#000000;fill:#918dc9;stroke-linecap:round;stroke-linejoin:round;stroke-dashoffset:1924.07;-inkscape-stroke:none;paint-order:stroke fill markers"
       d="m 4.0449219,2.1660156 a 0.0975,0.0975 0 0 0 -0.097656,0.097656 0.0975,0.0975 0 0 0 0.097656,0.097656 h 1.8183593 a 0.0975,0.0975 0 0 0 0.097656,-0.097656 0.0975,0.0975 0 0 0 -0.097656,-0.097656 z m 2.9609375,0 a 0.0975,0.0975 0 0 0 -0.097656,0.097656 0.0975,0.0975 0 0 0 0.097656,0.097656 H 21.578125 a 0.0975,0.0975 0 0 0 0.09766,-0.097656 0.0975,0.0975 0 0 0 -0.09766,-0.097656 z"
       id="path1575" />
  </g>
</svg>
